<svg viewBox="350 108.2791 190 207.9839" width="76.73670894718293" height="84" xmlns="http://www.w3.org/2000/svg" xmlns:xlink="http://www.w3.org/1999/xlink" preserveAspectRatio="none"><g opacity="1" transform="rotate(0 350 108.2791)">
<svg width="190" height="207.9839" x="350" y="108.2791" version="1.1" preserveAspectRatio="none" viewBox="14.961207389831543 11.645062446594238 70.07684326171875 76.70979309082031">
  <g transform="matrix(1 0 0 1 0 0)" class="aLgOaV3zRcolors-0187dd021-ce6a-4100-9a11-4b01a2323758"><path fill-rule="evenodd" clip-rule="evenodd" d="M85.038,37.392c0.003-1.205-0.134-2.388-0.513-3.531  c-1.104-3.334-2.96-6.099-6.07-7.896c-7.226-4.175-14.458-8.337-21.667-12.537c-1.96-1.143-4.048-1.718-6.292-1.777  c-2.474-0.064-4.824,0.383-7,1.646c-7.277,4.223-14.599,8.374-21.843,12.654c-4.319,2.553-6.592,6.477-6.646,11.49  c-0.088,8.382-0.021,16.764-0.027,25.146c-0.001,1.291,0.158,2.553,0.586,3.77c1.14,3.24,2.981,5.927,6.028,7.682  c7.17,4.13,14.342,8.258,21.487,12.428c1.877,1.096,3.855,1.744,6.012,1.861c2.635,0.145,5.141-0.283,7.461-1.631  c7.229-4.195,14.459-8.387,21.712-12.541c2.023-1.16,3.585-2.738,4.772-4.713c1.146-1.904,1.953-3.94,1.973-6.189  c0.037-4.416,0.011-8.832,0.011-13.248h0.012C85.034,45.801,85.029,41.596,85.038,37.392z M42.05,59.72  c0.568,0.603,0.541,1.552-0.062,2.12c-0.29,0.273-0.66,0.409-1.029,0.409c-0.398,0-0.796-0.158-1.091-0.471L29.722,51.026  c-0.546-0.578-0.546-1.481,0-2.06l10.146-10.746c0.569-0.603,1.519-0.629,2.121-0.061c0.602,0.569,0.629,1.519,0.061,2.121  l-9.175,9.716L42.05,59.72z M54.028,39.745l-5.143,21.217c-0.167,0.687-0.78,1.146-1.457,1.146c-0.117,0-0.235-0.014-0.354-0.042  c-0.805-0.195-1.3-1.006-1.104-1.812l5.143-21.217c0.196-0.805,1.006-1.296,1.812-1.104C53.729,38.129,54.224,38.939,54.028,39.745z   M70.278,51.033L60.132,61.779c-0.295,0.313-0.692,0.47-1.091,0.47c-0.37,0-0.74-0.136-1.03-0.409  c-0.602-0.569-0.629-1.519-0.061-2.121l9.175-9.716L57.95,40.28c-0.568-0.603-0.541-1.552,0.062-2.12s1.552-0.54,2.12,0.062  l10.146,10.752C70.824,49.552,70.824,50.455,70.278,51.033z"></path></g>
</svg>
</g></svg>
