<svg width="250" height="150" viewBox="0 0 250 150" fill="none" xmlns="http://www.w3.org/2000/svg">
<path d="M80.748 122.699H66.3164V118.094H80.748V122.699ZM82.8047 133H66.3164C65.6836 133 64.9922 132.889 64.2422 132.666C63.4922 132.443 62.7949 132.08 62.1504 131.576C61.5176 131.061 60.9844 130.398 60.5508 129.59C60.1289 128.77 59.918 127.768 59.918 126.584V110.096C59.918 109.779 59.9766 109.48 60.0938 109.199C60.2109 108.918 60.3691 108.672 60.5684 108.461C60.7793 108.25 61.0254 108.086 61.3066 107.969C61.5879 107.852 61.8926 107.793 62.2207 107.793H82.8047V112.363H64.4883V126.584C64.4883 127.182 64.6465 127.639 64.9629 127.955C65.2793 128.271 65.7422 128.43 66.3516 128.43H82.8047V133ZM108.803 109.164C108.979 109.574 109.031 110.008 108.961 110.465C108.891 110.91 108.703 111.291 108.398 111.607L93.3164 128.43H108.768V133H88.166C87.7207 133 87.3047 132.877 86.918 132.631C86.543 132.373 86.2617 132.039 86.0742 131.629C85.875 131.219 85.8105 130.791 85.8809 130.346C85.9629 129.9 86.1504 129.514 86.4434 129.186L101.561 112.363H86.0742V107.793H106.711C107.156 107.793 107.566 107.922 107.941 108.18C108.328 108.426 108.615 108.754 108.803 109.164ZM117.064 110.096H112.494V105.965H117.064V110.096ZM117.064 133H112.494V113.998H117.064V133ZM144.135 113.998C143.619 115.604 143.016 117.186 142.324 118.744C141.633 120.303 140.836 121.791 139.934 123.209C139.043 124.615 138.041 125.922 136.928 127.129C135.826 128.324 134.602 129.361 133.254 130.24C131.918 131.107 130.459 131.793 128.877 132.297C127.307 132.789 125.602 133.035 123.762 133.035C123.445 133.035 123.146 132.977 122.865 132.859C122.584 132.742 122.338 132.584 122.127 132.385C121.916 132.174 121.752 131.934 121.635 131.664C121.518 131.383 121.459 131.084 121.459 130.768V113.998H126.029V128.289C127.143 128.289 128.209 128.049 129.229 127.568C130.26 127.088 131.232 126.455 132.146 125.67C133.061 124.873 133.904 123.971 134.678 122.963C135.463 121.955 136.16 120.924 136.77 119.869C137.379 118.803 137.895 117.76 138.316 116.74C138.75 115.721 139.072 114.807 139.283 113.998H144.135ZM164.807 126.707C164.807 127.34 164.695 128.025 164.473 128.764C164.25 129.49 163.887 130.17 163.383 130.803C162.891 131.424 162.24 131.945 161.432 132.367C160.635 132.789 159.662 133 158.514 133H150.27C149.637 133 148.951 132.889 148.213 132.666C147.486 132.443 146.807 132.086 146.174 131.594C145.553 131.09 145.031 130.439 144.609 129.643C144.188 128.834 143.977 127.855 143.977 126.707C143.977 126.074 144.088 125.389 144.311 124.65C144.533 123.912 144.891 123.232 145.383 122.611C145.887 121.979 146.537 121.451 147.334 121.029C148.143 120.607 149.121 120.396 150.27 120.396H158.514V124.756H150.27C149.648 124.756 149.168 124.949 148.828 125.336C148.488 125.711 148.318 126.18 148.318 126.742C148.318 127.34 148.512 127.809 148.898 128.148C149.297 128.477 149.766 128.641 150.305 128.641H158.514C159.135 128.641 159.615 128.453 159.955 128.078C160.295 127.703 160.465 127.234 160.465 126.672V120.291C160.465 119.693 160.277 119.219 159.902 118.867C159.539 118.516 159.076 118.34 158.514 118.34H148.477V113.998H158.514C159.146 113.998 159.826 114.109 160.553 114.332C161.291 114.555 161.971 114.918 162.592 115.422C163.225 115.914 163.752 116.564 164.174 117.373C164.596 118.17 164.807 119.143 164.807 120.291V126.707ZM189.768 133H185.197V122.453C185.197 121.855 185.092 121.322 184.881 120.854C184.682 120.373 184.406 119.963 184.055 119.623C183.703 119.283 183.287 119.025 182.807 118.85C182.338 118.662 181.828 118.568 181.277 118.568H173.279V133H168.709V116.266C168.709 115.949 168.768 115.656 168.885 115.387C169.002 115.105 169.166 114.865 169.377 114.666C169.588 114.455 169.834 114.291 170.115 114.174C170.396 114.057 170.695 113.998 171.012 113.998H181.312C181.887 113.998 182.49 114.062 183.123 114.191C183.768 114.32 184.4 114.531 185.021 114.824C185.654 115.105 186.252 115.469 186.814 115.914C187.389 116.348 187.893 116.881 188.326 117.514C188.771 118.135 189.123 118.855 189.381 119.676C189.639 120.496 189.768 121.422 189.768 122.453V133Z" fill="#E7E7E7"/>
<g clip-path="url(#clip0_101_3)">
<path fill-rule="evenodd" clip-rule="evenodd" d="M163.783 40.2569C163.787 38.9374 163.638 37.6418 163.224 36.3899C162.018 32.738 159.988 29.7086 156.584 27.738C148.675 23.1597 140.76 18.5957 132.869 13.99C130.724 12.7366 128.438 12.1051 125.981 12.0385C123.272 11.9662 120.698 12.4535 118.314 13.8346C110.342 18.4524 102.32 22.9913 94.3839 27.6715C89.6522 30.4633 87.1596 34.7582 87.096 40.2475C86.9921 49.426 87.0579 58.6047 87.0438 67.7833C87.0415 69.197 87.2145 70.579 87.6821 71.9121C88.9275 75.461 90.941 78.405 94.276 80.3296C102.124 84.8585 109.974 89.3853 117.794 93.958C119.848 95.1599 122.014 95.8712 124.376 96.0013C127.261 96.1624 130.005 95.696 132.547 94.222C140.467 89.6348 148.388 85.0509 156.334 80.5087C158.55 79.2403 160.262 77.5137 161.564 75.3521C162.82 73.2682 163.706 71.0394 163.73 68.5767C163.774 63.741 163.75 58.9053 163.754 54.0697L163.767 54.0697C163.771 49.465 163.769 44.8604 163.783 40.2569ZM116.689 64.6682C117.31 65.329 117.28 66.3681 116.619 66.9896C116.301 67.2883 115.896 67.4369 115.492 67.4365C115.056 67.4362 114.621 67.2628 114.298 66.9198L103.197 55.1368C102.6 54.5034 102.601 53.5146 103.199 52.881L114.319 41.1229C114.943 40.4631 115.983 40.4355 116.642 41.058C117.3 41.6817 117.329 42.722 116.706 43.3807L106.651 54.0118L116.689 64.6682ZM129.823 42.8056L124.172 66.0343C123.989 66.7865 123.317 67.2886 122.576 67.2879C122.448 67.2878 122.319 67.2724 122.188 67.2416C121.307 67.0274 120.766 66.1389 120.981 65.2564L126.632 42.0277C126.847 41.1464 127.735 40.6094 128.617 40.8204C129.497 41.0358 130.039 41.9232 129.823 42.8056ZM147.607 55.181L136.488 66.9391C136.164 67.2816 135.729 67.4532 135.292 67.4528C134.887 67.4525 134.482 67.3032 134.165 67.004C133.506 66.3804 133.478 65.3401 134.1 64.6814L144.156 54.0503L134.118 43.395C133.496 42.7342 133.527 41.695 134.187 41.0736C134.848 40.4521 135.887 40.4836 136.509 41.1434L147.609 52.9263C148.207 53.5597 148.206 54.5485 147.607 55.181Z" fill="#7A63FF"/>
</g>
<defs>
<clipPath id="clip0_101_3">
<rect width="76.7367" height="84" fill="white" transform="translate(87.069 12) rotate(0.0470925)"/>
</clipPath>
</defs>
</svg>
