<svg width="258" height="158" viewBox="0 0 258 158" fill="none" xmlns="http://www.w3.org/2000/svg">
<g filter="url(#filter0_d_101_16)">
<path d="M84.748 122.699H70.3164V118.094H84.748V122.699ZM86.8047 133H70.3164C69.6836 133 68.9922 132.889 68.2422 132.666C67.4922 132.443 66.7949 132.08 66.1504 131.576C65.5176 131.061 64.9844 130.398 64.5508 129.59C64.1289 128.77 63.918 127.768 63.918 126.584V110.096C63.918 109.779 63.9766 109.48 64.0938 109.199C64.2109 108.918 64.3691 108.672 64.5684 108.461C64.7793 108.25 65.0254 108.086 65.3066 107.969C65.5879 107.852 65.8926 107.793 66.2207 107.793H86.8047V112.363H68.4883V126.584C68.4883 127.182 68.6465 127.639 68.9629 127.955C69.2793 128.271 69.7422 128.43 70.3516 128.43H86.8047V133ZM112.803 109.164C112.979 109.574 113.031 110.008 112.961 110.465C112.891 110.91 112.703 111.291 112.398 111.607L97.3164 128.43H112.768V133H92.166C91.7207 133 91.3047 132.877 90.918 132.631C90.543 132.373 90.2617 132.039 90.0742 131.629C89.875 131.219 89.8105 130.791 89.8809 130.346C89.9629 129.9 90.1504 129.514 90.4434 129.186L105.561 112.363H90.0742V107.793H110.711C111.156 107.793 111.566 107.922 111.941 108.18C112.328 108.426 112.615 108.754 112.803 109.164ZM121.064 110.096H116.494V105.965H121.064V110.096ZM121.064 133H116.494V113.998H121.064V133ZM148.135 113.998C147.619 115.604 147.016 117.186 146.324 118.744C145.633 120.303 144.836 121.791 143.934 123.209C143.043 124.615 142.041 125.922 140.928 127.129C139.826 128.324 138.602 129.361 137.254 130.24C135.918 131.107 134.459 131.793 132.877 132.297C131.307 132.789 129.602 133.035 127.762 133.035C127.445 133.035 127.146 132.977 126.865 132.859C126.584 132.742 126.338 132.584 126.127 132.385C125.916 132.174 125.752 131.934 125.635 131.664C125.518 131.383 125.459 131.084 125.459 130.768V113.998H130.029V128.289C131.143 128.289 132.209 128.049 133.229 127.568C134.26 127.088 135.232 126.455 136.146 125.67C137.061 124.873 137.904 123.971 138.678 122.963C139.463 121.955 140.16 120.924 140.77 119.869C141.379 118.803 141.895 117.76 142.316 116.74C142.75 115.721 143.072 114.807 143.283 113.998H148.135ZM168.807 126.707C168.807 127.34 168.695 128.025 168.473 128.764C168.25 129.49 167.887 130.17 167.383 130.803C166.891 131.424 166.24 131.945 165.432 132.367C164.635 132.789 163.662 133 162.514 133H154.27C153.637 133 152.951 132.889 152.213 132.666C151.486 132.443 150.807 132.086 150.174 131.594C149.553 131.09 149.031 130.439 148.609 129.643C148.188 128.834 147.977 127.855 147.977 126.707C147.977 126.074 148.088 125.389 148.311 124.65C148.533 123.912 148.891 123.232 149.383 122.611C149.887 121.979 150.537 121.451 151.334 121.029C152.143 120.607 153.121 120.396 154.27 120.396H162.514V124.756H154.27C153.648 124.756 153.168 124.949 152.828 125.336C152.488 125.711 152.318 126.18 152.318 126.742C152.318 127.34 152.512 127.809 152.898 128.148C153.297 128.477 153.766 128.641 154.305 128.641H162.514C163.135 128.641 163.615 128.453 163.955 128.078C164.295 127.703 164.465 127.234 164.465 126.672V120.291C164.465 119.693 164.277 119.219 163.902 118.867C163.539 118.516 163.076 118.34 162.514 118.34H152.477V113.998H162.514C163.146 113.998 163.826 114.109 164.553 114.332C165.291 114.555 165.971 114.918 166.592 115.422C167.225 115.914 167.752 116.564 168.174 117.373C168.596 118.17 168.807 119.143 168.807 120.291V126.707ZM193.768 133H189.197V122.453C189.197 121.855 189.092 121.322 188.881 120.854C188.682 120.373 188.406 119.963 188.055 119.623C187.703 119.283 187.287 119.025 186.807 118.85C186.338 118.662 185.828 118.568 185.277 118.568H177.279V133H172.709V116.266C172.709 115.949 172.768 115.656 172.885 115.387C173.002 115.105 173.166 114.865 173.377 114.666C173.588 114.455 173.834 114.291 174.115 114.174C174.396 114.057 174.695 113.998 175.012 113.998H185.312C185.887 113.998 186.49 114.062 187.123 114.191C187.768 114.32 188.4 114.531 189.021 114.824C189.654 115.105 190.252 115.469 190.814 115.914C191.389 116.348 191.893 116.881 192.326 117.514C192.771 118.135 193.123 118.855 193.381 119.676C193.639 120.496 193.768 121.422 193.768 122.453V133Z" fill="#1E1E1E"/>
<g clip-path="url(#clip0_101_16)">
<path fill-rule="evenodd" clip-rule="evenodd" d="M167.783 40.2569C167.787 38.9374 167.638 37.6418 167.224 36.3899C166.018 32.738 163.988 29.7086 160.584 27.738C152.675 23.1597 144.76 18.5957 136.869 13.99C134.724 12.7366 132.438 12.1051 129.981 12.0385C127.272 11.9662 124.698 12.4535 122.314 13.8346C114.342 18.4524 106.32 22.9913 98.3839 27.6715C93.6522 30.4633 91.1596 34.7582 91.096 40.2475C90.9921 49.426 91.0579 58.6047 91.0438 67.7833C91.0415 69.197 91.2145 70.579 91.6821 71.9121C92.9275 75.461 94.941 78.405 98.276 80.3296C106.124 84.8585 113.974 89.3853 121.794 93.958C123.848 95.1599 126.014 95.8712 128.376 96.0013C131.261 96.1624 134.005 95.696 136.547 94.222C144.467 89.6348 152.388 85.0509 160.334 80.5087C162.55 79.2403 164.262 77.5137 165.564 75.3521C166.82 73.2682 167.706 71.0394 167.73 68.5767C167.774 63.741 167.75 58.9053 167.754 54.0697L167.767 54.0697C167.771 49.465 167.769 44.8604 167.783 40.2569ZM120.689 64.6682C121.31 65.329 121.28 66.3681 120.619 66.9896C120.301 67.2883 119.896 67.4369 119.492 67.4365C119.056 67.4362 118.621 67.2628 118.298 66.9198L107.197 55.1368C106.6 54.5034 106.601 53.5146 107.199 52.881L118.319 41.1229C118.943 40.4631 119.983 40.4355 120.642 41.058C121.3 41.6817 121.329 42.722 120.706 43.3807L110.651 54.0118L120.689 64.6682ZM133.823 42.8056L128.172 66.0343C127.989 66.7865 127.317 67.2886 126.576 67.2879C126.448 67.2878 126.319 67.2724 126.188 67.2416C125.307 67.0274 124.766 66.1389 124.981 65.2564L130.632 42.0277C130.847 41.1464 131.735 40.6094 132.617 40.8204C133.497 41.0357 134.039 41.9232 133.823 42.8056ZM151.607 55.181L140.488 66.9391C140.164 67.2816 139.729 67.4532 139.292 67.4528C138.887 67.4525 138.482 67.3032 138.165 67.004C137.506 66.3804 137.478 65.3401 138.1 64.6814L148.156 54.0503L138.118 43.395C137.496 42.7342 137.527 41.695 138.187 41.0736C138.848 40.4521 139.887 40.4836 140.509 41.1434L151.609 52.9263C152.207 53.5597 152.206 54.5486 151.607 55.181Z" fill="#7A63FF"/>
</g>
</g>
<defs>
<filter id="filter0_d_101_16" x="0" y="0" width="258" height="158" filterUnits="userSpaceOnUse" color-interpolation-filters="sRGB">
<feFlood flood-opacity="0" result="BackgroundImageFix"/>
<feColorMatrix in="SourceAlpha" type="matrix" values="0 0 0 0 0 0 0 0 0 0 0 0 0 0 0 0 0 0 127 0" result="hardAlpha"/>
<feOffset dy="4"/>
<feGaussianBlur stdDeviation="2"/>
<feComposite in2="hardAlpha" operator="out"/>
<feColorMatrix type="matrix" values="0 0 0 0 0 0 0 0 0 0 0 0 0 0 0 0 0 0 0.25 0"/>
<feBlend mode="normal" in2="BackgroundImageFix" result="effect1_dropShadow_101_16"/>
<feBlend mode="normal" in="SourceGraphic" in2="effect1_dropShadow_101_16" result="shape"/>
</filter>
<clipPath id="clip0_101_16">
<rect width="76.7367" height="84" fill="white" transform="translate(91.069 12) rotate(0.0470925)"/>
</clipPath>
</defs>
</svg>
